<?xml version="1.0" standalone="no"?>
<!DOCTYPE svg PUBLIC "-//W3C//DTD SVG 20010904//EN"
 "http://www.w3.org/TR/2001/REC-SVG-20010904/DTD/svg10.dtd">
<svg version="1.0" xmlns="http://www.w3.org/2000/svg"
 width="1559.000000pt" height="729.000000pt" viewBox="0 0 1559.000000 729.000000"
 preserveAspectRatio="xMidYMid meet">

<g transform="translate(0.000000,729.000000) scale(0.100000,-0.100000)"
fill="#000000" stroke="none">
<path d="M14106 6612 c-220 -51 -209 -42 -129 -100 l26 -19 -79 -104 c-103
-136 -372 -406 -499 -500 -486 -363 -1057 -520 -1489 -409 -155 39 -265 99
-363 197 -29 28 -53 50 -53 47 0 -11 35 -72 71 -126 91 -134 298 -243 539
-283 134 -23 401 -16 570 14 552 97 1049 398 1439 869 56 68 97 110 104 105 7
-3 30 -20 51 -37 l39 -30 -6 153 c-4 85 -7 180 -7 213 0 32 -3 58 -7 57 -5 0
-97 -21 -207 -47z"/>
<path d="M14820 6539 c-135 -15 -249 -28 -255 -28 -5 -1 19 -29 53 -64 l62
-63 -85 -102 c-123 -147 -380 -407 -488 -495 -483 -393 -1001 -602 -1542 -624
-316 -12 -581 47 -771 173 -89 59 -196 163 -246 239 -30 46 -38 53 -32 30 75
-304 377 -530 819 -613 68 -13 147 -17 325 -17 202 0 254 4 365 23 252 45 466
116 700 232 397 196 725 441 1053 788 l135 143 63 -62 62 -62 6 44 c6 40 46
466 46 482 0 4 -6 6 -12 6 -7 -1 -123 -14 -258 -30z"/>
<path d="M10960 6418 c-30 -15 -53 -37 -67 -63 l-23 -40 3 -975 2 -975 24 -34
c13 -18 42 -42 65 -52 39 -17 78 -19 654 -19 l612 0 0 -134 0 -135 -229 -3
c-209 -3 -231 -5 -250 -22 -14 -13 -21 -31 -21 -57 0 -73 -44 -69 783 -69 501
0 745 3 758 11 51 27 43 109 -13 128 -18 7 -119 11 -244 11 l-214 0 0 135 0
135 615 0 c497 0 622 3 648 14 37 15 84 66 92 99 3 12 4 239 3 504 l-3 482
-110 -65 c-140 -83 -358 -193 -460 -234 -44 -18 -82 -34 -85 -37 -9 -10 359
37 428 54 l22 5 0 -306 0 -306 -1435 0 -1435 0 0 880 0 880 880 0 879 0 -20
-47 c-22 -51 -53 -97 -103 -152 l-31 -34 30 19 c54 33 179 126 239 178 53 46
216 227 216 241 0 3 -487 5 -1083 5 l-1083 0 -44 -22z"/>
<path d="M4198 5789 c-17 -33 -49 -80 -70 -104 l-39 -44 29 -15 c28 -14 29
-14 71 35 37 43 47 49 82 49 37 0 41 -3 61 -45 21 -43 24 -45 53 -39 45 10 46
12 24 49 l-21 35 82 0 c71 0 81 2 76 16 -3 9 -6 22 -6 30 0 11 -25 14 -135 14
l-136 0 16 30 c17 32 17 32 -32 43 -19 4 -28 -4 -55 -54z"/>
<path d="M4652 5810 c-11 -20 -37 -58 -57 -84 -20 -27 -35 -49 -33 -51 29 -24
46 -23 73 5 25 26 36 30 82 30 l53 0 22 -45 c21 -43 24 -45 53 -39 45 10 46
12 24 49 l-21 35 107 0 c94 0 106 2 101 16 -3 9 -6 22 -6 30 0 12 -30 14 -170
14 l-171 0 16 30 c17 32 16 33 -31 43 -15 3 -25 -5 -42 -33z"/>
<path d="M3470 5795 l0 -45 -205 0 -205 0 0 -85 0 -85 35 0 35 0 0 55 0 55
390 0 390 0 0 -55 0 -55 35 0 35 0 0 85 0 85 -215 0 -215 0 0 45 0 45 -40 0
-40 0 0 -45z"/>
<path d="M2029 5791 l-24 -19 21 -24 c12 -12 40 -51 61 -85 l40 -61 31 20 c18
11 32 24 32 28 0 12 -120 160 -130 160 -4 0 -18 -9 -31 -19z"/>
<path d="M2320 5465 l0 -335 -25 0 c-19 0 -25 -5 -25 -22 0 -44 9 -47 100 -37
110 13 258 37 270 44 6 3 10 18 10 32 0 23 -3 25 -32 20 -18 -3 -60 -9 -93
-12 -33 -3 -75 -8 -92 -11 l-33 -5 0 141 0 140 54 0 55 0 38 -72 c55 -106 149
-195 265 -253 l93 -46 21 27 22 27 -66 32 c-37 18 -87 47 -110 65 l-44 32 59
27 c33 16 79 41 102 55 l43 28 -22 23 -23 24 -41 -25 c-61 -37 -165 -89 -170
-83 -2 2 -22 33 -45 69 l-41 65 125 3 125 3 0 189 0 190 -260 0 -260 0 0 -335z
m440 225 l0 -50 -180 0 -180 0 0 50 0 50 180 0 180 0 0 -50z m0 -160 l0 -50
-180 0 -180 0 0 50 0 50 180 0 180 0 0 -50z"/>
<path d="M5520 5560 l0 -240 120 0 120 0 0 -65 0 -65 -130 0 -130 0 0 -30 0
-30 130 0 130 0 0 -75 0 -75 -160 0 -160 0 0 -35 0 -35 350 0 350 0 0 35 0 35
-150 0 -150 0 0 75 0 75 130 0 130 0 0 30 0 30 -130 0 -130 0 0 65 0 65 115 0
115 0 0 240 0 240 -275 0 -275 0 0 -240z m240 105 l0 -75 -80 0 -80 0 0 75 0
75 80 0 80 0 0 -75z m230 0 l0 -75 -75 0 -75 0 0 75 0 75 75 0 75 0 0 -75z
m-230 -210 l0 -75 -80 0 -80 0 0 75 0 75 80 0 80 0 0 -75z m230 0 l0 -75 -75
0 -75 0 0 75 0 75 75 0 75 0 0 -75z"/>
<path d="M1100 5755 l0 -35 140 0 140 0 0 -77 c0 -140 -53 -302 -141 -429 -60
-87 -155 -168 -294 -249 -15 -9 -16 -14 -6 -33 16 -31 32 -28 112 18 153 90
249 193 328 351 l48 97 28 -66 c60 -138 201 -309 327 -399 l45 -32 27 27 26
28 -85 67 c-138 109 -241 254 -294 417 -22 66 -41 202 -41 298 l0 52 -180 0
-180 0 0 -35z"/>
<path d="M5140 5750 c0 -30 1 -30 54 -30 l53 0 6 -82 c12 -149 16 -138 -53
-138 l-60 0 0 -30 c0 -30 1 -30 54 -30 l53 0 7 -92 c3 -50 6 -115 6 -144 0
-58 5 -55 -93 -74 -55 -11 -57 -12 -51 -38 4 -15 9 -30 13 -34 7 -7 209 42
279 68 31 11 42 20 38 31 -3 8 -6 21 -6 28 0 11 -8 11 -50 0 l-50 -13 0 134 0
134 45 0 c43 0 45 1 45 30 0 29 -2 30 -45 30 l-45 0 0 94 c0 52 -3 101 -6 110
-5 14 3 16 56 16 53 0 61 2 56 16 -3 9 -6 22 -6 30 0 11 -27 14 -150 14 l-150
0 0 -30z"/>
<path d="M9721 5629 c-60 -173 -141 -376 -205 -513 l-45 -96 -57 0 -56 0 6
-31 c3 -17 6 -36 6 -41 0 -15 490 18 714 48 61 8 113 14 118 14 5 0 18 -20 30
-45 18 -37 26 -44 43 -39 43 14 65 24 65 30 0 27 -211 363 -278 443 -28 33
-31 34 -61 22 -17 -8 -31 -15 -31 -18 0 -2 45 -72 100 -154 55 -83 100 -155
100 -159 0 -5 -12 -11 -27 -14 -77 -16 -573 -54 -573 -44 0 3 25 60 55 127 65
144 149 355 199 498 l35 103 -27 6 c-15 3 -34 7 -44 8 -13 3 -27 -27 -67 -145z"/>
<path d="M6359 5742 l-16 -29 101 -31 c55 -17 145 -48 198 -70 102 -41 103
-41 127 5 10 20 7 23 -70 53 -61 23 -309 100 -322 100 -1 0 -9 -13 -18 -28z"/>
<path d="M7370 5705 l0 -35 291 0 290 0 -7 -22 c-11 -37 -64 -140 -97 -187
-117 -171 -367 -383 -552 -467 -30 -14 -55 -28 -55 -30 0 -3 7 -16 16 -29 l16
-24 55 24 c116 52 252 144 391 265 l66 58 70 -58 c39 -32 127 -109 196 -172
l125 -115 34 26 34 25 -60 56 c-57 54 -230 204 -307 267 l-38 31 46 61 c95
123 187 308 173 346 -6 13 -50 15 -347 15 l-340 0 0 -35z"/>
<path d="M8380 5705 l0 -35 420 0 420 0 0 35 0 35 -420 0 -420 0 0 -35z"/>
<path d="M4530 5605 l0 -25 -200 0 -200 0 0 -85 0 -85 35 0 35 0 0 60 0 60
375 0 375 0 0 -60 0 -60 35 0 35 0 0 85 0 85 -205 0 -205 0 0 25 c0 23 -4 25
-40 25 -36 0 -40 -2 -40 -25z"/>
<path d="M3180 5570 l0 -30 90 0 90 0 -52 -85 -52 -85 -88 0 -88 0 0 -29 c0
-17 4 -33 10 -36 10 -6 375 9 604 25 l140 10 31 -30 30 -30 35 21 34 21 -101
99 -102 99 -36 -17 -35 -17 45 -46 46 -47 -47 -7 c-26 -3 -125 -6 -220 -6
l-173 0 55 80 55 80 195 0 194 0 0 30 0 30 -330 0 -330 0 0 -30z"/>
<path d="M6251 5478 c-6 -17 -9 -33 -7 -35 2 -2 63 -22 135 -44 73 -21 160
-51 193 -64 34 -14 62 -24 63 -22 2 1 10 17 20 36 14 28 15 35 3 42 -18 12
-208 74 -283 92 -121 30 -112 30 -124 -5z"/>
<path d="M7055 5398 c-138 -191 -365 -318 -668 -374 l-98 -18 7 -31 c3 -16 9
-33 13 -37 9 -10 132 9 240 38 105 27 249 92 338 151 81 53 196 164 243 235
22 33 40 63 40 67 0 4 -15 14 -32 22 l-33 16 -50 -69z"/>
<path d="M8320 5420 l0 -40 230 0 230 0 0 -72 c0 -90 -28 -156 -90 -212 -46
-41 -139 -88 -213 -107 l-45 -11 13 -31 c16 -38 30 -38 135 -3 186 63 281 179
297 362 l6 74 198 0 199 0 0 40 0 40 -480 0 -480 0 0 -40z"/>
<path d="M1970 5420 l0 -30 65 0 65 0 0 -163 0 -163 -73 -44 -73 -45 13 -33
13 -32 43 26 c23 15 61 42 83 60 l41 33 23 -24 c62 -66 180 -85 530 -85 l258
0 6 23 c3 12 6 27 6 32 0 7 -93 9 -267 7 -350 -5 -431 7 -493 73 -25 26 -25
30 -28 211 l-3 184 -105 0 -104 0 0 -30z"/>
<path d="M4250 5170 l0 -280 35 0 c22 0 38 6 41 15 5 13 46 15 280 15 237 0
274 -2 274 -15 0 -10 11 -15 35 -15 l35 0 0 135 0 135 -310 0 -310 0 0 40 0
40 285 0 285 0 0 38 c0 20 -3 67 -7 105 l-6 67 -318 0 -319 0 0 -280z m570
175 l0 -45 -244 0 -243 0 -7 31 c-12 63 -28 59 244 59 l250 0 0 -45z m60 -305
l0 -60 -275 0 -275 0 0 60 0 60 275 0 275 0 0 -60z"/>
<path d="M3470 5235 l0 -35 -185 0 -185 0 0 -30 0 -30 185 0 185 0 0 -75 0
-75 -210 0 -210 0 0 -30 0 -30 465 0 465 0 0 30 0 30 -216 0 -217 0 7 53 c3
28 6 62 6 75 0 22 0 22 180 22 l180 0 0 30 0 30 -185 0 -185 0 0 35 c0 34 -1
35 -40 35 -39 0 -40 -1 -40 -35z"/>
<path d="M750 3863 c0 -5 -5 -51 -10 -103 -6 -52 -15 -138 -20 -190 -5 -52
-16 -165 -24 -250 -15 -152 -31 -305 -61 -612 -25 -245 -33 -333 -49 -498 -9
-85 -23 -225 -31 -310 -29 -298 -45 -456 -51 -522 l-7 -68 316 0 315 0 6 27
c3 16 10 78 16 138 6 61 15 151 20 200 5 50 17 160 25 245 25 252 44 438 57
558 l12 112 157 0 c87 0 160 4 163 8 3 4 12 78 21 163 9 84 20 186 24 224 5
39 7 73 5 76 -2 4 -76 10 -164 14 l-160 7 5 36 c2 21 10 90 16 155 l12 117
238 0 237 0 6 28 c3 15 10 79 16 142 6 63 15 155 20 204 5 49 7 93 4 98 -6 10
-1114 11 -1114 1z"/>
<path d="M1816 3048 c-3 -13 -28 -257 -56 -543 -28 -286 -66 -668 -84 -850
-19 -181 -32 -333 -29 -337 2 -5 143 -8 313 -8 l308 0 34 28 c18 15 100 87
181 160 82 73 150 132 152 130 2 -3 -9 -104 -30 -270 l-6 -48 316 0 c244 0
317 3 320 13 4 13 4 8 105 1016 39 381 70 702 70 712 0 19 -21 19 -795 19
l-795 0 -4 -22z m910 -495 c-3 -21 -19 -182 -36 -358 -17 -176 -33 -339 -36
-362 l-5 -43 -160 0 c-145 0 -159 2 -159 18 0 25 70 733 76 760 4 22 6 22 165
22 l161 0 -6 -37z"/>
<path d="M3586 3038 c-3 -18 -24 -222 -46 -453 -23 -231 -57 -577 -76 -770
-19 -192 -37 -385 -41 -427 l-6 -78 796 0 797 0 4 23 c3 12 17 141 31 287 14
146 28 280 31 298 l5 32 -321 0 c-248 0 -322 -3 -325 -13 -2 -6 -7 -42 -10
-79 l-7 -68 -153 0 c-85 0 -156 4 -159 8 -5 8 57 685 70 760 l5 32 153 0 c84
0 155 -2 158 -5 2 -3 1 -35 -4 -72 -4 -37 -6 -68 -4 -70 9 -10 633 -15 639 -6
5 7 67 592 67 628 0 3 -360 5 -800 5 l-799 0 -5 -32z"/>
<path d="M5365 3058 c-2 -7 -23 -202 -45 -433 -23 -231 -61 -618 -86 -860 -24
-241 -40 -443 -36 -447 5 -5 363 -7 798 -6 l789 3 22 210 c12 116 22 222 22
238 l1 27 -475 0 -475 0 0 23 c-1 12 16 192 37 400 l37 377 158 0 c87 0 158
-3 158 -7 0 -5 -50 -147 -110 -317 -61 -170 -110 -311 -110 -313 0 -2 143 -3
318 -3 l318 0 114 318 113 317 23 225 c13 124 23 233 24 243 0 16 -44 17 -795
17 -628 0 -797 -3 -800 -12z"/>
<path d="M8046 3048 c-3 -13 -32 -304 -66 -648 -34 -344 -71 -726 -84 -850
-13 -124 -21 -228 -19 -232 2 -5 145 -8 316 -8 l312 1 179 160 c98 87 180 158
181 157 2 -3 -16 -173 -29 -275 l-6 -43 316 0 c243 0 316 3 319 13 6 19 175
1679 175 1724 l0 23 -795 0 -795 0 -4 -22z m910 -500 c-3 -24 -19 -185 -36
-358 -17 -173 -33 -334 -36 -357 l-5 -43 -160 0 c-145 0 -159 2 -159 18 0 24
71 732 76 760 4 22 6 22 165 22 l160 0 -5 -42z"/>
<path d="M9816 3048 c-2 -13 -12 -102 -21 -198 -9 -96 -22 -238 -30 -315 -15
-144 -32 -320 -60 -600 -9 -88 -22 -223 -30 -300 -8 -77 -21 -207 -29 -290 -8
-82 -22 -220 -31 -305 -28 -279 -34 -354 -31 -358 2 -2 145 -4 317 -5 l314 -2
7 55 c4 30 14 127 23 215 8 88 22 228 30 310 9 83 22 218 30 300 8 83 21 218
30 300 24 249 43 443 55 570 18 187 -6 166 178 163 150 -3 157 -4 155 -23 -2
-11 -10 -91 -18 -177 -23 -240 -44 -456 -53 -528 l-7 -65 -77 -3 -77 -3 -6
-32 c-12 -71 -44 -430 -39 -438 3 -5 178 -9 395 -9 303 0 391 3 394 13 4 10
36 329 120 1172 8 77 21 210 30 295 8 85 18 183 22 218 l6 62 -796 0 -797 0
-4 -22z"/>
<path d="M11586 3058 c-3 -7 -7 -42 -10 -78 -4 -36 -13 -132 -22 -215 -8 -82
-21 -217 -29 -300 -8 -82 -21 -220 -30 -305 -36 -353 -46 -453 -60 -605 -9
-88 -20 -198 -25 -245 -29 -262 -61 -622 -57 -626 3 -3 146 -6 318 -7 l314 -2
17 170 c9 94 24 242 33 330 8 88 22 226 30 308 8 81 22 213 30 295 8 81 21
215 29 297 9 83 23 227 32 320 9 94 18 176 20 183 2 9 43 12 159 12 117 0 155
-3 155 -12 1 -52 -75 -766 -83 -775 -6 -8 -35 -13 -79 -13 -46 0 -70 -4 -73
-12 -4 -12 -27 -230 -42 -401 l-6 -67 399 2 399 3 7 70 c3 39 13 140 22 225 9
85 22 224 31 308 8 83 22 221 30 305 9 83 22 220 30 302 8 83 17 168 20 190 2
22 9 92 15 155 6 63 13 134 16 158 l6 42 -796 0 c-629 0 -797 -3 -800 -12z"/>
</g>
</svg>
